<?xml version="1.0"?>
<svg xmlns:rdf="http://www.w3.org/1999/02/22-rdf-syntax-ns#" xmlns="http://www.w3.org/2000/svg" xmlns:cc="http://web.resource.org/cc/" xmlns:xlink="http://www.w3.org/1999/xlink" xmlns:dc="http://purl.org/dc/elements/1.1/" xmlns:svg="http://www.w3.org/2000/svg" id="svg2134" viewBox="0 0 175.57 131.05" version="1.0">
  <g id="layer1" transform="translate(-351.76 -479.77)">
    <path id="path8412" stroke-linejoin="round" d="m443.64 482.73c29.86 0.06 58.93 2.26 68.18 7.08 19.25 10.03 14.04 72.17 0 79.49-2.71 1.41-9.08 2.58-17.74 3.49 0.39 6.2-0.26 15.09-5.75 21.79-12.55 15.32-37.15 13.19-37.15 13.19s22.59-7.92 28.54-19.73c2.28-4.51 2.12-9.6 1.06-14.16-39.47 2.53-102.24 1.29-113.5-4.58-16.15-8.42-17.34-70.45 0-79.49 8.76-4.57 43.05-7.15 76.36-7.08z" stroke="#000" stroke-width="5.9085" fill="#789cae"/>
  </g>
  <metadata>
    <rdf:RDF>
      <cc:Work>
        <dc:format>image/svg+xml</dc:format>
        <dc:type rdf:resource="http://purl.org/dc/dcmitype/StillImage"/>
        <cc:license rdf:resource="http://creativecommons.org/licenses/publicdomain/"/>
        <dc:publisher>
          <cc:Agent rdf:about="http://openclipart.org/">
            <dc:title>Openclipart</dc:title>
          </cc:Agent>
        </dc:publisher>
        <dc:title>comic clouds 2</dc:title>
        <dc:date>2006-12-26T00:00:00</dc:date>
        <dc:description>bubble, clip art, clipart, comic, speech, </dc:description>
        <dc:source>http://openclipart.org/detail/3480/-by--3480</dc:source>
        <dc:creator>
          <cc:Agent>
            <dc:title>SRD</dc:title>
          </cc:Agent>
        </dc:creator>
        <dc:subject>
          <rdf:Bag>
            <rdf:li>bubble</rdf:li>
            <rdf:li>clip art</rdf:li>
            <rdf:li>clipart</rdf:li>
            <rdf:li>comic</rdf:li>
            <rdf:li>speech</rdf:li>
          </rdf:Bag>
        </dc:subject>
      </cc:Work>
      <cc:License rdf:about="http://creativecommons.org/licenses/publicdomain/">
        <cc:permits rdf:resource="http://creativecommons.org/ns#Reproduction"/>
        <cc:permits rdf:resource="http://creativecommons.org/ns#Distribution"/>
        <cc:permits rdf:resource="http://creativecommons.org/ns#DerivativeWorks"/>
      </cc:License>
    </rdf:RDF>
  </metadata>
</svg>
